<svg xmlns="http://www.w3.org/2000/svg" xmlns:xlink="http://www.w3.org/1999/xlink" width="512" height="512" viewBox="0 0 512 512">
  <defs>
    <clipPath id="a">
      <rect width="512" height="512" style="fill: none"/>
    </clipPath>
    <clipPath id="b">
      <polygon points="0.03 -244 0.03 -243.97 0.03 -243.955 0.03 522.548 0.12 522.548 512 522.548 512 522.518 512 -243.985 511.91 -244 0.03 -244" style="fill: none"/>
    </clipPath>
    <linearGradient id="c" x1="-194.2065" y1="-95.923" x2="-185.2089" y2="-95.923" gradientTransform="translate(-2157.0552 3932.7769) rotate(95.3009) scale(21.3951)" gradientUnits="userSpaceOnUse">
      <stop offset="0" stop-color="#f05a28"/>
      <stop offset="1" stop-color="#faaf40"/>
    </linearGradient>
    <clipPath id="d">
      <path d="M320.8271,155.7127s17.0827,12.7858,15.0016,16.1095c-2.0661,3.3686,13.0253,8.6985,16.7083,11.7377,3.683,3.0094,6.887,8.5937,6.887,8.5937s17.427-38.1626,13.16-41.8307c-.7037-.6138-2.65-.8683-5.3748-.8683-13.4895-.015-46.3822,6.2581-46.3822,6.2581" style="fill: none"/>
    </clipPath>
    <linearGradient id="e" x1="-280.797" y1="-187.26" x2="-271.7992" y2="-187.26" gradientTransform="matrix(0.8782, 2.7146, -2.7146, 0.8782, 80.8161, 1078.0995)" gradientUnits="userSpaceOnUse">
      <stop offset="0" stop-color="#fff"/>
      <stop offset="1" stop-color="#faaf40"/>
    </linearGradient>
    <clipPath id="f">
      <path d="M103.3192-6.5649c-.3742,31.2608,46.3522,172.0241,63.8541,208.8394,17.5318,36.8152,42.714,84.8293,112.8861,105.2805a338.4153,338.4153,0,0,1,27.997,19.1188s-40.8127-108.9336,18.4-167.3529c-41.0372-12.9805-62.5515-28.536-64.932-36.8752-2.3954-8.2793-53.9128-47.8194-61.2339-70.172-7.3361-22.3826-55.0058-104.4871-50.6341-108.5593,4.3567-4.0424-3.3087-5.3-3.3087-5.3s-42.6992,23.79-43.0286,55.0207" style="fill: none"/>
    </clipPath>
    <linearGradient id="g" x1="-218.6445" y1="-71.1833" x2="-209.6467" y2="-71.1833" gradientTransform="matrix(-4.6701, 6.9247, -6.9247, -4.6701, -1262.7221, 1259.893)" gradientUnits="userSpaceOnUse">
      <stop offset="0" stop-color="#f05a28"/>
      <stop offset="0.5879" stop-color="#faaf40"/>
      <stop offset="1" stop-color="#fff"/>
    </linearGradient>
    <clipPath id="h">
      <polygon points="247.182 299.306 308.056 328.081 299.523 257.37 247.182 299.306" style="fill: none"/>
    </clipPath>
    <linearGradient id="i" x1="-201.8591" y1="-3.2645" x2="-192.8613" y2="-3.2645" gradientTransform="matrix(-2.9261, -0.2167, 0.2167, -2.9261, -291.4656, 240.9754)" gradientUnits="userSpaceOnUse">
      <stop offset="0" stop-color="#faaf40"/>
      <stop offset="1" stop-color="#fff"/>
    </linearGradient>
    <clipPath id="j">
      <path d="M283.7723,101.71c0,17.1425,17.5618,31.0062,39.2556,31.0062,21.664,0,39.2257-13.8637,39.2257-31.0062,0-17.1276-17.5617-31.0212-39.2257-31.0212-21.6938,0-39.2556,13.8936-39.2556,31.0212" style="fill: none"/>
    </clipPath>
    <linearGradient id="k" x1="-259.481" y1="-151.4828" x2="-250.4832" y2="-151.4828" gradientTransform="translate(-6.7081 1349.1082) rotate(74.055) scale(4.3551)" gradientUnits="userSpaceOnUse">
      <stop offset="0" stop-color="#f05a28"/>
      <stop offset="0.2364" stop-color="#f05a28"/>
      <stop offset="1" stop-color="#faaf40"/>
    </linearGradient>
    <clipPath id="l">
      <rect x="0.0299" y="-243.985" width="511.97" height="766.5327" style="fill: none"/>
    </clipPath>
    <clipPath id="m">
      <path d="M314.9732,58.0377c-33.761,10.4952,40.678,28.4911,40.678,28.4911l11.4833,46.1725,13.175,22.9964h2.74c7.905-11.1988,22.4724-43.5974,8.6087-59.3326-11.9923-13.6541-35.4529-40.3485-63.51-40.3485a44.2787,44.2787,0,0,0-13.1751,2.0211" style="fill: none"/>
    </clipPath>
    <linearGradient id="n" x1="-124.1203" y1="-45.8263" x2="-115.1225" y2="-45.8263" gradientTransform="matrix(-2.6722, -5.986, 5.986, -2.6722, 300.3037, -727.5707)" xlink:href="#e"/>
    <clipPath id="o">
      <polygon points="276.796 356.063 277.903 378.071 251.598 396.277 267.858 483.831 383.019 483.831 446.649 487.035 455.647 485.148 505.547 480.582 507.044 416.908 475.709 400.274 415.867 355.075 276.796 356.063" style="fill: none"/>
    </clipPath>
    <linearGradient id="p" x1="-174.3636" y1="-73.6317" x2="-165.366" y2="-73.6317" gradientTransform="matrix(-7.6515, -8.7769, 8.7769, -7.6515, -272.3978, -1631.2237)" xlink:href="#e"/>
    <clipPath id="q">
      <path d="M350.1865,81.0641a42.87,42.87,0,0,0-9.6866-5.03ZM287.2607,47.9319c-9.0129,0-23.55,5.21-23.55,5.21s-21.9035,23.4606-22.7119,41.3067c7.4558,7.411,17.8162,13.04,17.8162,13.04s5.9438,27.5029,14.5824,33.6413c8.6536,6.1533,32.8328,17.2623,36.3212,15.96,1.048-.3893,3.5333.1048,7.5756.6437,9.2375,1.1379,26.9041,2.3057,55.32-7.411,3.3237-25.287-11.8725-63.7791-11.8725-63.7791l-10.54-5.4647c7.2014,5.09,11.6629,12.1271,11.6629,19.9123,0,15.5406-17.7414,28.1018-39.57,28.1018-21.8586,0-39.57-12.5612-39.57-28.1018,0-15.5106,17.7114-28.1017,39.57-28.1017A52.8353,52.8353,0,0,1,340.5,76.0486l-9.6417-5,25.5865-6.4229s1.3474-1.3025-3.2638-4.7011c-4.6412-3.4135-14.1782-15.87-23.1461-16.0046-8.9381-.1348-19.6278-.6738-23.85,0-4.2071.6587-7.86,1.542-15.3011-.3444l4.2819,3.3686s-9.2375-1.9762-10.69-3.3686c-.18-.1647-.2994-.2395-.3743-.2395-.4491-.015,1.7667,3.8028,3.159,4.5963" style="fill: none"/>
    </clipPath>
    <linearGradient id="r" x1="-139.2083" y1="-126.1272" x2="-130.2105" y2="-126.1272" gradientTransform="translate(2051.0454 509.7747) rotate(-29.8047) scale(9.6752)" gradientUnits="userSpaceOnUse">
      <stop offset="0" stop-color="#fff"/>
      <stop offset="0.3879" stop-color="#fff"/>
      <stop offset="1" stop-color="#f58a2a"/>
    </linearGradient>
    <clipPath id="s">
      <path d="M511.7005,214.5961c.09-.09.1946-.1647.2845-.24v-2.2757c-.1048.7636-.1947,1.602-.2845,2.5152M386.4628,179.0535l10.36,40.4833s11.4533-7.0666,18.7445,27.2933c3.2338,15.2711-3.6381,24.9128-10.6449,40.5581-7.0067,15.6005-5.4646,36.9949,3.3537,63.7492,8.8332,26.7543,5.4347,23.85,5.4347,23.85l14.6422,16.0646,83.6316,12.5313H512V336.8994c-1.2576-46.0079-2.2757-102.2563-.2845-122.3033-11.3185,9.1477-48.4332,18.9242-72.9268,12.666C407.5279,219.2672,386.7023,179.5176,386.4628,179.0535Z" style="fill: none"/>
    </clipPath>
    <linearGradient id="t" x1="-158.2333" y1="-77.8839" x2="-149.2355" y2="-77.8839" gradientTransform="translate(1595.7983 -2253.5526) rotate(-92.7077) scale(16.2487)" gradientUnits="userSpaceOnUse">
      <stop offset="0" stop-color="#f05a28"/>
      <stop offset="0.2364" stop-color="#f05a28"/>
      <stop offset="0.7515" stop-color="#f58933"/>
      <stop offset="1" stop-color="#faaf40"/>
    </linearGradient>
    <clipPath id="dr">
      <path d="M284.9551,59.5648s-23.76,45.4539,9.7166,64.962c33.4766,19.4631,48.6279,7.1863,62.4317-9.0878C370.9372,99.18,369.4849,54.37,369.4849,54.37Z" style="fill: none"/>
    </clipPath>
  </defs>
  <g style="clip-path: url(#a)">
    <g style="clip-path: url(#b)">
      <path d="M-55,512.895H512.8931L560.556-.895H-22.5254L-70.3644,514.69A69.2484,69.2484,0,0,1-55,512.895Z" style="fill: url(#c)"/>
    </g>
    <g style="clip-path: url(#d)">
      <polygon points="371.536 133.046 389.352 188.096 326.127 208.563 308.326 153.497 371.536 133.046" style="fill: url(#e)"/>
    </g>
    <g style="clip-path: url(#f)">
      <polygon points="62.014 -0.895 -77.044 205.284 256.584 430.277 506.445 59.789 416.465 -0.895 62.014 -0.895" style="fill: url(#g)"/>
    </g>
    <g style="clip-path: url(#h)">
      <polygon points="307.727 332.573 241.987 327.707 247.526 252.879 313.266 257.744 307.727 332.573" style="fill: url(#i)"/>
    </g>
    <path d="M170.467,147.5532c-5.8838,2.2756-19.7625-50.6042-19.7625-54.3771,0-3.7578-14.0884-56.967-14.0884-56.967S118.0584,9.7125,115.0464-.895H0V236.6343l209.3184,37.13S176.3658,145.3074,170.467,147.5532Z" style="fill: #231f20"/>
    <g style="clip-path: url(#j)">
      <polygon points="356.325 49.953 378.633 128.03 289.701 153.437 267.393 75.375 356.325 49.953" style="fill: url(#k)"/>
    </g>
    <g style="clip-path: url(#l)">
      <path d="M341.8772,88.61c0,5.21-4.6561,9.4471-10.36,9.4471S321.1714,93.82,321.1714,88.61c0-5.2251,4.6412-9.4621,10.3454-9.4621s10.36,4.237,10.36,9.4621" style="fill: #fcfdff"/>
    </g>
    <g style="clip-path: url(#m)">
      <polygon points="301.873 201.975 244.112 72.59 384.876 9.754 442.636 139.139 301.873 201.975" style="fill: url(#n)"/>
    </g>
    <g style="clip-path: url(#o)">
      <polygon points="477.382 512.895 572.41 430.053 396.733 228.55 186.232 412.057 274.146 512.895 477.382 512.895" style="fill: url(#p)"/>
    </g>
    <g style="clip-path: url(#q)">
      <polygon points="318.024 -0.895 190.619 72.096 274.325 218.219 426.287 131.174 350.639 -0.895 318.024 -0.895" style="fill: url(#r)"/>
    </g>
    <g style="clip-path: url(#s)">
      <polygon points="386.732 409.482 375.863 179.548 511.715 173.125 522.585 403.059 386.732 409.482" style="fill: url(#t)"/>
    </g>
    <g>
      <g style="clip-path: url(#l)">
        <path d="M354.5283,73.7729c42.2649,32.8478-12.696,60.4555-12.696,60.4555l-25.9458-3.8028c-49.2567-10.57-40.8127-57.521-40.8127-57.521,4.9856-3.3237,37.1746-31.9944,79.4545.8683m-35.872-4.9256c-24.0744,0-43.5825,13.7889-43.5825,30.7966,0,16.9928,19.508,30.7817,43.5824,30.7817s43.5974-13.7889,43.5974-30.7817c0-17.0078-19.523-30.7966-43.5973-30.7966" style="fill: #020202"/>
      </g>
      <g style="clip-path: url(#l)">
        <path d="M228.8414,450.579s-13.6541,39.3454-17.1126,44.6454a91.7355,91.7355,0,0,0,8.5638,9.3423s5.45-6.348,5.0305-14.3129,3.5183-39.6748,3.5183-39.6748" style="fill: #020202"/>
      </g>
      <g style="clip-path: url(#l)">
        <polygon points="393.425 412.386 398.066 415.246 397.018 407.865 393.425 412.386" style="fill: #020202"/>
      </g>
      <g style="clip-path: url(#l)">
        <path d="M383.0193,402.2655s-10.0759-7.4109-10.4053-4.0423c-.3444,3.3686,3.2788,9.1926,6.318,9.6567s4.0873-5.6144,4.0873-5.6144" style="fill: #020202"/>
      </g>
      <g style="clip-path: url(#l)">
        <path d="M364.0053,384.7188c5.9288,0,6.1833,12.4264,3.3837,12.6211-2.77.2245-6.8121,3.1739-8.2644,0-1.4372-3.174.2845-7.6955-3.698-8.474-3.9824-.7486-11.618-.7486-17.8611-4.1322,0,0-.24-10.7945-9.8214-10.7945-.5989-6.0635-4.9855-10.7945-4.9855-10.7945l-3.3687-4.7311-6.6174-2.6949h4.9406s16.3939-3.3686,19.8673,9.4471c3.4585,12.8307,9.9561,4.0424,9.9561,4.0424s-3.2338,8.953,0,7.8451c3.2189-1.1079,11.7228,7.6655,16.4688,7.6655" style="fill: #020202"/>
      </g>
      <g style="clip-path: url(#l)">
        <path d="M369.1106,360.42s-12.6809,2.6949-9.9861,6.0785c2.7249,3.3836,9.9861,3.3836,9.9861,3.3836s-3.8327-8.7884,0-9.4621" style="fill: #020202"/>
      </g>
      <g style="clip-path: url(#l)">
        <path d="M327.1751,352.3351s.509-7.4259-1.1378-8.1-8.07-4.0424-8.3393,0c-.2545,4.0573,1.3176,8.7733,3.3088,8.1s6.1683,0,6.1683,0" style="fill: #020202"/>
      </g>
      <g style="clip-path: url(#l)">
        <path d="M340.949,347.3346s-3.7279-5.809-3.204-8.5039c.5091-2.6948,10.2256-11.4682,6.7672-14.1781-3.4584-2.6949-2.0811-9.4471-6.9319-6.7522-4.8508,2.7248-6.2432,6.5276-4.8508,14.4027,1.3625,7.8751,8.22,15.0315,8.22,15.0315" style="fill: #020202"/>
      </g>
      <g style="clip-path: url(#l)">
        <path d="M355.4416,321.9577s-3.6381,6.0785-5.1952,6.0785c-1.572,0,2.1859,3.144,5.8539,4.2669,3.683,1.1229,3.0393-5.15,3.0393-5.15Z" style="fill: #020202"/>
      </g>
      <g style="clip-path: url(#l)">
        <path d="M369.8293,77.456s.6887-5.4946,2.7847-6.1234c2.0811-.6438-.3444-4.0274-2.7847-2.665s-1.3924,5.7491,0,8.7884" style="fill: #020202"/>
      </g>
      <g style="clip-path: url(#l)">
        <path d="M339.7642,17.5465l5.4778,5.51a5.5341,5.5341,0,0,0-.7448-1.999A9.4614,9.4614,0,0,0,339.7642,17.5465Z" style="fill: #020202"/>
        <path d="M382.046,6.2209c-.2988-.6379-1.4886-3.3955-3.0473-7.1159H366.2468l7.1457,9.3467A41.2135,41.2135,0,0,1,362.2833-.895H340.1682l-1.9291,2.0705.006.0086,1.94-2.06,13.16,6.7822-.18,2.6949L338.2549,1.1982c.3313.4754,8.6827,12.4877,8.6827,15.1586,0,2.6948-5.9287-1.3625-8.6985-.3444-1.4717.5439-.275.8021,1.5251,1.5341l-1.51-1.5192,12.4864,4.0574L345.8,23.618l-.5578-.5611a5.2812,5.2812,0,0,1-2.1371,4.7532l6.2432,8.7883-6.6026,1.0031,6.9618,1.3624s-4.192,4.0423-4.192,5.0454c0,1.0181,4.8658,3.0542,5.21,4.7311.3593,1.7067-1.0181,6.7672-6.9319,1.7067,4.1771,6.4079,8.3242,9.4471,9.3722,9.4471,1.063,0,3.1141,8.7584,6.2582,9.7915,3.1141,1.0031,5.54-1.4673,3.8625-4.4167l-3.8177-6.3928,1.9013-3.0393h-2.126V48.411h-2.92V46.06l-3.114-2.0511s4.1471-.6587,6.2581,0c1.0181-1.6918-6.2581-8.429-6.2581-8.429a43.24,43.24,0,0,1,10.0609,7.77,38.3655,38.3655,0,0,1,0,7.0965l10.1658,6.0785-5.0455-6.0785s3.2189,2.0212,2.5152,0-3.2638-4.716-2.5152-5.7341c.7635-1.0181,3.5633-3.7279,2.5152-6.4228s-14.5823-10.1208-14.5823-10.1208-2.0661-7.0966.7037-5.0605c2.7547,2.0212,13.8786,9.1028,13.8786,9.1028l-2.5152-5.7342s5.9588,0,7.3511-2.0211a18.24,18.24,0,0,0,2.096-4.0423s-12.8456,2.6948-14.9267,0c-2.0811-2.71-9.7016-11.8127-9.7016-11.8127l10.0609,4.3867L356.31,4.2s11.4833,10.45,14.5824,11.8126c3.1141,1.3324,7.6056-1.6918,6.9319-2.6949C377.12,12.2994,383.1539,8.5715,382.046,6.2209Z" style="fill: #020202"/>
      </g>
      <g style="clip-path: url(#l)">
        <path d="M354.5433,138.1659s-6.9169,5.4048-31.92,4.0423c-44.3909-1.3474-56.8772-51.2778-58.2546-56.6826-1.4073-5.4047-20.8256-6.7522-20.8256-16.1993,27.7425-1.3474,49.96-10.7945,61.0544-16.1993,91.5815,12.142,77.7177,97.1809,77.7177,97.1809-4.1621-18.8792-27.7723-12.142-27.7723-12.142m-70.741-67.4771s-19.1787,33.8808,18.0408,52.64c19.4182,8.1,49.9453,4.7311,54.1075,0s18.61-34.7192,3.6681-46.0377C345.86,66.856,322.0249,56.331,291.8421,67.32c-2.6351.9432-5.315,2.081-8.04,3.3686m-11.633,14.6871s2.0661,29.9583,22.3676,43.0285c20.3165,13.04,55.1705,8.1446,60.3657,4.3119-9.7316.7336-37.1447,7.2762-58.9733-7.6955-21.8286-14.9866-22.2029-38.4771-23.76-39.6449" style="fill: #020202"/>
      </g>
      <g style="clip-path: url(#l)">
        <path d="M373.3925,77.456s16.903,10.7945,22.1131,24.2989C386.1334,77.77,372.599,71.3325,372.599,71.3325Z" style="fill: #020202"/>
      </g>
      <g style="clip-path: url(#l)">
        <path d="M428.8026,108.1478s-3.1291,4.5364-3.1291,7.3361c-4.6861-.7486-7.2762-4.8358-8.3092,0a14.692,14.692,0,0,1-5.2251,7.86h5.2251s1.542,4.0423,3.1141,2.5152c1.557-1.5121,7.2761,3.2189,8.3242.3444,1.033-2.8746,5.1951-12.98,0-18.0558" style="fill: #020202"/>
      </g>
      <g style="clip-path: url(#l)">
        <path d="M401.39,43.86s-3.2938,3.5483-3.2938,5.06c0,1.5271-1.5421-.1647-2.59,4.222s-1.9164,16.918,2.9494,15.2112,2.7548-3.7279,6.4228-7.2762c3.6381-3.5483,8.6686-10.1208,2.59-13.6541-6.0785-3.5633-2.8-8.6088-6.0785-3.5633" style="fill: #020202"/>
      </g>
      <g style="clip-path: url(#l)">
        <path d="M392.3616,64.6253v3.8776s-1.5421-2.4853-3.1291-.15c-1.572,2.35-2.605,9.2524,0,9.1027a47.8579,47.8579,0,0,1,5.4347,0s3.4285-7.2612-2.3056-12.8306" style="fill: #020202"/>
      </g>
      <g style="clip-path: url(#l)">
        <path d="M427.7545,89.9423c.7486-7.1265-4.6861-3.0392-7.2911-1.0331-2.6051,2.0362-9.9412,5.7042-10.1658,8.4291-.2395,2.71,1.8415,15.3759,1.8415,15.3759l-1.8415,4.9406s2.8746-6.4678,6.5276-9.522c3.6382-3.0243,9.3573-3.5333,10.9293-18.19" style="fill: #020202"/>
      </g>
      <g style="clip-path: url(#l)">
        <path d="M412.1391,68.3532s-4.6861,1.1827-5.21,4.5514c-4.6861,2.86-4.3418,2.68-5.5545,4.5513-1.2127,1.8565-3.3536,3.3687,1.093,6.3929,4.4466,3.0393,16.7083-1.0031,16.5736-3.0242-.1348-2.0362-3.0243-14.5824-6.902-12.4714" style="fill: #020202"/>
      </g>
      <g style="clip-path: url(#l)">
        <path d="M399.7875,84.9418s-3.8177.06-5.1053,0c-1.2726-.09-.3444,2.9494,1.0181,5.0005,1.3624,2.0062,9.2075,2.5,4.0872-5.0005" style="fill: #020202"/>
      </g>
      <g style="clip-path: url(#l)">
        <path d="M431.3477,34.2478s-13.2648,7.1864-15.0464,20.8705c-1.7817,13.714,5.45,12.9953,5.45,12.9953S438.07,54.49,431.3477,34.2478" style="fill: #020202"/>
      </g>
      <g style="clip-path: url(#l)">
        <path d="M439.2078,58.0377s-13.7888-.18-14.6871,19.4033a12.4772,12.4772,0,0,0,6.842,7.5008s8.8782-14.253,7.8451-26.9041" style="fill: #020202"/>
      </g>
      <g style="clip-path: url(#l)">
        <path d="M451.7092,68.4879s-14.4177,9.6268-12.4115,19.5829c1.9912,9.9262,12.9355,5.9438,12.4115,3.1291-.539-2.7847,6.2282-13.9236,3.129-18.31Z" style="fill: #020202"/>
      </g>
      <g style="clip-path: url(#l)">
        <path d="M427.8294,130.4106s-7.6206,4.0573-3.3087,16.6934c4.2669-1.5121,7.0217-7.0666,3.3087-16.6934" style="fill: #020202"/>
      </g>
      <g style="clip-path: url(#l)">
        <path d="M447.3674,132.7312s-6.9469,8.8333-8.07,14.3877c-1.1229,5.5845,10.8394-1.5121,10.8394-5.0454,0-3.5632-2.77-9.3423-2.77-9.3423" style="fill: #020202"/>
      </g>
      <g style="clip-path: url(#l)">
        <path d="M444.6725,108.1478a17.8928,17.8928,0,0,0-3.3986,15.1962c5.21-2.53,10.0909-9.6267,6.0785-15.1962-3.9974-5.5694-2.68,0-2.68,0" style="fill: #020202"/>
      </g>
      <g style="clip-path: url(#l)">
        <path d="M424.5207,13.4971h-8.489l-3.8776-5.5694s10.2733-4.8193,6.4821-8.8227h-24.89c-.74,4.6665-2.06,16.9178,4.05,18.9585,5.0005,2.0212-2.65,23.6252,11.0191,23.67,3.8776-1.9014,22.9664-16.2292,17.5617-25.7811C420.9874,6.4155,424.5207,13.4971,424.5207,13.4971Z" style="fill: #020202"/>
      </g>
      <g style="clip-path: url(#l)">
        <path d="M462.1,115.4839s-6.7522,5.809,0,14.9417c2.605-1.5121,14.0584-1.2876,13.5343-7.4709-.539-6.2132-11.4084-10.4951-13.5343-7.4708" style="fill: #020202"/>
      </g>
      <g style="clip-path: url(#l)">
        <path d="M475.6488,81.4683c-1.6918-1.048,0,5.0754,0,5.0754H472.52s-9.3872,7.4409,0,17.0527l2.0661-5.06,3.1291,5.06s7.83-15.9-2.0661-22.1281" style="fill: #020202"/>
      </g>
      <g style="clip-path: url(#l)">
        <path d="M483.9581,101.7849s-7.6356,17.2623-3.2788,15.87l4.3268-1.4073,3.1291-.7636c-.015-.015.6886-12.0971-4.1771-13.699" style="fill: #020202"/>
      </g>
      <g style="clip-path: url(#l)">
        <path d="M444.8222,15.9525a60.3948,60.3948,0,0,0-.15,9.1926c.2545,6.0485-1.2127-3.0393-3.8627,0s-5.9737-6.7373,4.0124-9.1926" style="fill: #020202"/>
      </g>
      <g style="clip-path: url(#l)">
        <path d="M457.8325,4.3944s-6.6623,13.16-7.6954,15.1812c-1.048,2.0212,3.8327,2.0511,3.8327,2.0511s.03,7.5457,5.12,8.5638c5.0754,1.0031,11.3484,5.0754,12.3965,0,1.033-5.0454-.7636-28.3263-13.6542-25.7961" style="fill: #020202"/>
      </g>
      <g style="clip-path: url(#l)">
        <path d="M460.8419,58.0377s.1048-1.1528.12-2.9194a43.0748,43.0748,0,0,0-.9582-10.061c-1.033-4.2968-3.1291-8.0846-7.2762-8.2942-4.6861,3.5482-4.1621,17.7114,0,21.26s6.5875,10.3005,8.2344,12.98c1.6469,2.6949,3.8627,2.6051,6.4079-2.92,2.53-5.5095,3.8926-12.7708,7.1115-14.9566,3.2039-2.1859-1.9763-16.379-6.1533-18.9092a15.5055,15.5055,0,0,1-5.8689-6.9768l-1.6319,5.42,1.6319,13.205" style="fill: #020202"/>
      </g>
      <g style="clip-path: url(#l)">
        <path d="M512.06,92.4725v22.0382s-11.9773-4.9406-13.01-12.7258c2.59-5.27,5.1951-5.1353,6.4976-4.4466s-1.8115-5.3748,0-7.396c1.8266-2.0511,6.5127.015,6.5127,2.53" style="fill: #020202"/>
      </g>
      <g style="clip-path: url(#l)">
        <path d="M499.05,84.9418s2.081-8.8483,0-7.5008c-2.0661,1.3474-4.1472.18-4.6862,0-.524-.1647-1.033-1.1378-3.129-.9133-2.0811.2246-5.12,3.5782-3.0842,4.1771,2.0661.6138,3.3836-2.126,5.57.7486a9.457,9.457,0,0,0,5.33,3.4884" style="fill: #020202"/>
      </g>
      <g style="clip-path: url(#l)">
        <path d="M488.15,99.03s1.0031,11.3185,2.5751,10.7047c1.5571-.5839,2.3506-.9582,2.9944-4.0723.6437-3.0841-2.3955-6.6324-5.57-6.6324" style="fill: #020202"/>
      </g>
      <g style="clip-path: url(#l)">
        <path d="M512.06,64.6253V8.9457s-20.3015-1.5271-3.1291,27.8323c-1.048,7.0816-4.1771,8.444-3.3985,16.364A15.7583,15.7583,0,0,0,512.06,64.6253" style="fill: #020202"/>
      </g>
      <g style="clip-path: url(#l)">
        <path d="M493.72,8.9308s-9.6717-1.9763-9.9861,12.681c-.2995,14.6572,3.8626,18.7145,7.2312,17.6964,3.3986-1.0031,9.9263-15.7052,2.7549-30.3774" style="fill: #020202"/>
      </g>
      <g style="clip-path: url(#l)">
        <path d="M493.8094,41.7187s-3.5932,7.381-2.83,8.2942a10.6611,10.6611,0,0,1,1.3475,3.1441s-1.8565-1.4523-2.0062,1.9613c-.12,3.4285,4.0273,6.4677,6.6324,7.4858,2.62,1.018,4.4316-2.0212,5.0754-4.5664.6438-2.5152,2.2457-10.001-2.9793-13.1451Z" style="fill: #020202"/>
      </g>
      <g style="clip-path: url(#l)">
        <path d="M480.6643,53.142s-2.3356,3.3686-1.3474,4.8808c.9881,1.542,8.1745,2.53,8.1745,2.53Z" style="fill: #020202"/>
      </g>
      <g style="clip-path: url(#l)">
        <path d="M480.6643,62.7837c.1946,2.3356,2.62,5.7192,2.62,5.7192s-3.8177,2.7847-1.3175,2.9944c2.53.21,5.5246-2.9944,5.5246-2.9944L484.0628,64.61Z" style="fill: #020202"/>
      </g>
      <g style="clip-path: url(#l)">
        <path d="M480.5732-.895H466.3314l-1.0879,5.08,3.7579,4.746s6.9767-2.9195,5.51-4.746c-1.4522-1.8415,1.4672,1.8415,1.4672,1.8415A25.1248,25.1248,0,0,0,480.5732-.895Z" style="fill: #020202"/>
      </g>
      <g style="clip-path: url(#l)">
        <path d="M496.8951-.895c.4491,4.15,1.2073,9.5071,2.1543,9.8258,1.5721.524,13.01-5.5545,13.01-9.1028,0-.1912-.0042-.44-.0113-.723Z" style="fill: #020202"/>
      </g>
      <g style="clip-path: url(#l)">
        <path d="M340.6945,47.0785V39.443H308.0713s32.6232,11.6778,32.6232,7.6355" style="fill: #020202"/>
      </g>
      <g style="clip-path: url(#l)">
        <path d="M308.0713,8.826c3.4583-5.8237,22.1265,3.1283,22.128,3.129h0a29.1776,29.1776,0,0,1,1.4673-2.9943L335.8287-.172l-1.8349-.723H312.9062a17.1274,17.1274,0,0,0-4.8349,5.08c-6.2432,10.4352,11.8126,14.5374,9.0279,14.732-2.7847.18-3.8178,8.3542-3.8178,8.3542s-5.8988-6.5126-10.7646-8.3542c-4.8508-1.8415-6.9318-.8533-7.6355-2.9643-.6887-2.0811,5.5395-12.0672,5.5395-16.1095a5.8813,5.8813,0,0,0-.0437-.738H292.74c-1.1219.2578-2.3744.5155-3.8022.738C280.209,1.2054,273.382,27.5106,273.382,32.6907c0,5.1952,6.2431,4.267,11.7827,6.7822,5.5544,2.5,17.3521-2.6949,17.3521-2.6949L337.58,34.2628c.4491-13.5793-3.8328-14.8519-7.3062-15.8251-1.4619-.3939-1.451-2.1237-.9486-4C312.8462,5.2793,307.6971,11.79,308.0713,8.826Z" style="fill: #020202"/>
        <path d="M344.4973,21.0878l-14.2979-9.1327,0,0a19.6653,19.6653,0,0,0-.8737,2.4824l.0055.003C345.8,23.603,358.7952,30.2354,344.4973,21.0878Z" style="fill: #020202"/>
      </g>
      <g style="clip-path: url(#l)">
        <path d="M270.6123,32.6758s.6887,6.7672,7.6355,6.7672c2.0811,3.5782,2.7847,10.016,0,8.4889s5.5545-10.3-2.7847-1.5271c-8.3392,8.7584-13.8787,8.7135-13.8787,8.7135s1.3924-12.666,4.8658-13.4c3.4584-.7187,4.1621-9.0429,4.1621-9.0429" style="fill: #020202"/>
      </g>
      <g style="clip-path: url(#l)">
        <path d="M265.0428,88.0858S246.3283,86.02,243.5585,80.72c-2.7847-5.315,0-13.5643,0-13.5643s2.77-7.5907,2.77-9.1178c0-1.5121-.6887-14.3577,2.7847-14.3577,3.4585.0149,5.54,15.9447,12.4864,19.1037,6.9319,3.174,3.4584,14.6423,3.4584,14.6423v10.66Z" style="fill: #020202"/>
      </g>
      <g style="clip-path: url(#l)">
        <path d="M243.5435,89.9423s4.3568,6.3929,5.315,7.396c.9282,1.033,6.1234,2.71,5.255,6.2581-.8683,3.5633-9.1776,8.7434-10.57,11.9025-1.3923,3.129-1.2276,11.6629-1.2276,11.6629s-12.6361,1.1677-14.0135-4.7011c-1.3923-5.8689,0-20.7058,4.1621-20.7058,4.1472,0,2.77-8.8932,4.1472-10.5251,1.3923-1.6169,5.7042-5.3149,5.7042-5.3149s11.9623,3.3686,11.7976,6.5725" style="fill: #020202"/>
      </g>
      <g style="clip-path: url(#l)">
        <path d="M254.2034,106.5608s-.3144.4491-.7486,1.1229c-1.3774,2.0511-3.9974,6.2431-2.9644,6.7971,1.3924.7486-.2395,3.2339-.2395,3.2339s4.207-.18,3.9525,4.731c-.24,4.9257-6.2881,7.5158-3.9525,10.27,2.3206,2.7548,11.3335,6.0486,11.3335,6.0486l-5.9437,5.4946s7.6654-2.6949,10.27,0,4.9107,8.7584,4.9107,8.7584l9.2375,2.71s-5.1053,14.1632,0,14.1632,10.66-8.7584,12.7558-6.7373c2.0811,2.0362,2.77,1.3475,0,6.7373-2.7847,5.42,11.7827-1.3325,15.2561-8.7584,3.4584-7.4409,2.7847-10.1358,0-10.81-2.77-.6737-20.6159-6.7522-28.0119-14.8518-7.381-8.1-9.2375-8.3242-9.2375-8.3242s7.86-1.078,0-3.8028c-7.8452-2.71.8084-12.2917-4.9107-13.5793-5.7042-1.2875-10.9293-4.3118-11.7078-3.2039" style="fill: #020202"/>
      </g>
      <g style="clip-path: url(#l)">
        <path d="M334.3615,168.3787s-11.109,6.842-7.905,8.8482c3.2189,2.0212,9.2824-2.6649,9.3722-5.3748.09-2.74-1.4672-3.4734-1.4672-3.4734" style="fill: #020202"/>
      </g>
      <g style="clip-path: url(#l)">
        <path d="M326.4565,160.264c-1.7517.1947-10.57,3.0393-10.57,5.33,0,2.2757,3.5483,3.7879,5.285,2.7847,1.7217-1.018,7.98-1.2277,7.98-3.8926,0-2.6948-1.3923-4.3567-2.6948-4.222" style="fill: #020202"/>
      </g>
      <g style="clip-path: url(#l)">
        <path d="M302.6216,164.486s10.39,3.1291,18.2056-8.7733c-1.5571-2.0212-6.7073-.7636-7.5158,0-.7935.7636-.4192-2.8746-2.9494-3.0692-2.5452-.2246-7.74,11.8425-7.74,11.8425" style="fill: #020202"/>
      </g>
      <g style="clip-path: url(#l)">
        <path d="M327.8488,192.1536s11.2737-6.5725,7.98-7.83c-3.3087-1.2726-12.4564-1.0181-11.648,1.0031.8235,2.0361,2.3655,3.5483,4.1771,2.53,1.8266-1.0181-.509,4.2968-.509,4.2968" style="fill: #020202"/>
      </g>
      <g style="clip-path: url(#l)">
        <path d="M340.6945,140.9656s14.8369-.5988,18.52,0c3.6681.5989,3.9525,7.92,0,11.6779-3.9675,3.7579,9.1477-5.9887,9.1477-5.9887s-2.6051-.6138,1.1228,6.8421c-1.048,4.9107-11.1089,32.5483-10.0759,38.6418,1.048,6.1233,32.0543-39.1359,22.6072-56.6827-9.4321-17.5467-22.0832,1.4224-26.0806,0-3.9675-1.3923-15.2411,5.51-15.2411,5.51" style="fill: #020202"/>
      </g>
      <g style="clip-path: url(#l)">
        <path d="M350.6356,447.2553s26.23,29.7037,58.7787,22.9665c-3.7279,6.7821,26.4249,34.3748,78.0621.9881,0,0,3.2189,1.4223,9.477,1.1079,6.2581-.3294,19.6428-29.1049-49.601-49.3316-22.0383-16.2142-49.0771-27.0088-42.4895-76.9392,6.5725,22.9515,10.6747,29.7037,14.1931,29.7037,3.4884,0,22.4724-14.8668,40.0341,0,7.86,9.4322,10.4652,18.8793,15.4208,18.8793,4.9406,0,11.5282-6.7373,24.5385-1.3475,13.01,5.42,13.01-1.3474,13.01-1.3474v89.0662s-11.9624,20.5411-32.743,12.172c-1.8565.1048-3.8477.3143-5.8988.5539-24.0444,2.83-62.5215,11.9175-122.7824-46.4719" style="fill: #020202"/>
      </g>
      <g style="clip-path: url(#l)">
        <path d="M419.056,459.7117s-.7486,10.5849,8.7734,6.6175" style="fill: #020202"/>
      </g>
      <g style="clip-path: url(#l)">
        <path d="M411.63,463.4845c-2.0811-.5389-7.2912,3.7429-7.2912,3.7429v-3.8028H401.21s-.5241-3.3985,2.081-3.713c2.605-.2994,8.3392,3.7729,8.3392,3.7729" style="fill: #020202"/>
      </g>
      <g style="clip-path: url(#l)">
        <path d="M392.9006,459.7117s-11.4384,1.3325-11.9623,0c-.5241-1.3175,0-4.3568,0-4.3568h-13.01l-3.1291-2.53-4.6861-2.5152V447.27l-6.7672-3.5333s7.2762,2.5152,9.3723,0c1.048,3.5333,2.605,6.0485,5.7191,5.5544,3.1441-.509,1.5571,2.9195,4.7012,2.7249,3.114-.1946,8.8183-1.8265,9.8663,0s6.2581,2.9344,9.8962,7.6954" style="fill: #020202"/>
      </g>
      <g style="clip-path: url(#l)">
        <path d="M353.3605,409.7963s-4.9107,10.1208-2.7249,14.1781c-4.5813-5.5694-5.1053-7.5906-6.6624-7.0816-1.572.509-2.605-4.0573-2.605-4.0573V406.263H333.553s-5.7192-1.0181-7.8152-2.5452c-2.0811-1.4972,7.2912,0,7.2912,0s-1.048-4.0424-2.59-6.0486a96.1759,96.1759,0,0,1-5-8.6086l-2.3057-3.0393a15.33,15.33,0,0,0,5.1952,0c2.605-.509,4.6861,1.4972,6.7821,5.06,2.0811,3.5333,3.1141,9.1177,3.1141,9.1177l6.7672-1.4971,1.048,3.5183,4.5813,2.74h7.92Z" style="fill: #020202"/>
      </g>
      <g style="clip-path: url(#l)">
        <path d="M358.5407,418.405s2.081,10.63,6.2282,12.1419c4.1621,1.5271,0,3.0393,0,3.0393s.524-2.0062,4.1621-1.5122c3.6531.5091,4.1771-5.06,4.1771-6.0635,0-1.018,2.59-2.0361,2.59-2.0361H369.979l-2.86-2.9644v-2.605l-8.5787-6.0785Z" style="fill: #020202"/>
      </g>
      <g style="clip-path: url(#l)">
        <path d="M386.6424,421.01a12.7777,12.7777,0,0,0-2.53.2545c-1.4372.3294-2.74,1.093-1.6169,2.71,2.0811,3.0393,4.1621,2.0361,4.1621,2.0361s-2.605,1.0032,0,4.5364c2.6051,3.5483,2.6051,2.0362,6.2282,1.5122,3.6681-.4791,3.6681,1.4971,3.6681,1.4971s-3.0392,4.0723-7.2463,4.0723-4.5214-1.4971-7.2312-4.0723l-2.71-2.5152-3.6381-7.0816Z" style="fill: #020202"/>
      </g>
      <g style="clip-path: url(#l)">
        <path d="M396.5387,437.6285h4.6262l-4.6262,6.0935s5.7341-2.53,7.2762-3.0392c1.572-.5091,7.8152,1.0031,7.8152,0s6.4827-3.0543,7.396-3.0543-5.33,1.5271-7.396,0c-2.111-1.4971-5.2251-4.0573-5.2251-4.0573l-2.59-4.2519s-7.2762,6.2881-7.2762,10.36" style="fill: #020202"/>
      </g>
      <g style="clip-path: url(#l)">
        <path d="M401.5093,282.2529s-12.2618,7.0966-8.6237,14.1782c3.6531,7.0816,4.222,4.0423,8.6237,0,4.3717-4.0424,12.2468-12.157,0-14.1782" style="fill: #020202"/>
      </g>
      <g style="clip-path: url(#l)">
        <polygon points="387.675 300.668 397.781 310.594 406.405 305.654 396.539 305.654 387.675 300.668" style="fill: #020202"/>
      </g>
      <g style="clip-path: url(#l)">
        <path d="M418.4572,310.5942s-4.0723,5.06,0,8.444c4.0872,3.3687,9.3722,0,9.3722,0v5.2551l3.5034-13.699s-3.8178-4.8658-7.3361-4.9556" style="fill: #020202"/>
      </g>
      <g style="clip-path: url(#l)">
        <path d="M431.3477,324.2932s-7.2912-.4791-7.3361,5.2251c-.06,5.7192,5.7192,7.74,7.3361,5.7192,1.6319-2.0212,6.0037-10.9443,2.9944-10.9443" style="fill: #020202"/>
      </g>
      <g style="clip-path: url(#l)">
        <path d="M361.8644,339.3548s.3892,1.2576,0,6.6923c-.3444,5.3748,3.8028,14.8219,5.18,11.4683,1.3924-3.3687,13.13-9.4471,8.6536-11.4683s-4.1771-5.27-6.4228-6.6923c-2.2457-1.4374-7.4109,0-7.4109,0" style="fill: #020202"/>
      </g>
      <g style="clip-path: url(#l)">
        <path d="M386.1334,339.3548s-8.01,6.812-5.2251,10.1208,3.0992,1.4223,6.7672,0a12.6522,12.6522,0,0,0,5.2251-3.4285s-7.8-3.9376-6.7672-6.6923" style="fill: #020202"/>
      </g>
      <g style="clip-path: url(#l)">
        <path d="M427.8294,404.9754s5.285,13.0553,0,16.02c-5.285,2.9793,11.2437-.6438,19.5379,1.9762,8.3093,2.59,20.9753,13.5344,20.9753,13.5344l6.1533,15.4957s.8834-16.8731,19.2236-14.3728c18.3253,2.53-46.3522-43.2231-46.3522-43.2231s19.553-27.5029,0-8.474" style="fill: #020202"/>
      </g>
      <g style="clip-path: url(#l)">
        <path d="M490.336,123.344s4.8208,9.1028,9.6267,7.0666c4.8059-2.0212,2.65-7.98,2.65-7.98Z" style="fill: #020202"/>
      </g>
      <g style="clip-path: url(#l)">
        <path d="M474.496,132.7312s-1.4822,3.2638-2.7847,6.0336c-1.2726,2.7847,6.6474,12.9055,7.366,8.3541.7336-4.5513,0-14.3877,0-14.3877a8.6181,8.6181,0,0,1-4.5813,0" style="fill: #020202"/>
      </g>
      <g style="clip-path: url(#l)">
        <path d="M490.336,140.9656s-2.2907,9.3723,3.4734,9.3723,5.24-2.0511,5.24-2.0511-5.4647-8.2644-8.7135-7.3212" style="fill: #020202"/>
      </g>
      <g style="clip-path: url(#l)">
        <path d="M350.6356,212.0659s-14.9417,14.5075-12.8007,18.9092c-1.3175,5.06-9.2824,11.4683-7.5606,13.8188s1.7517,4.0424,5.0454,1.6918c3.2788-2.3505,2.2308-11.4833,5-11.7976,2.7847-.3294,8.04-4.8359,8.04-4.8359s-1.7817-2.2457-1.7817-3.9375c0-1.7068,4.0573-13.8488,4.0573-13.8488" style="fill: #020202"/>
      </g>
      <g style="clip-path: url(#l)">
        <path d="M346.234,190.1325s-24.5236,17.8911-25.4368,21.9334c-.9133,4.0573.12,7.4259-1.9613,8.7734-2.0811,1.3624-8.1446,4.5064-8.3991,8.9829-.2694,4.5214-1.4821,5.8539,0,9.2375,1.4673,3.3687,3.9076,3.713,5.45,0,1.5571-3.7129,4.5215-3.2488,8.2494-9.2375,3.713-5.9587,5.4647-10.39,6.1533-13.8936.6887-3.5184-1.2726-7.5607.569-9.2675a22.8238,22.8238,0,0,1,6.9917-4.0423c3.174-1.3625,3.6831-1.3625,6.2133-4.4017,2.5-3.0242,2.1708-8.0846,2.1708-8.0846" style="fill: #020202"/>
      </g>
      <g style="clip-path: url(#l)">
        <path d="M324.1359,195.2078s-5.3149,8.4291-8.2643,7.0816c1.572,5.0754.524,12.8007-10.57,13.6541-.6887-7.5606-2.0661-4.0573,2.4254-10.39,4.5214-6.303,3.159-4.9706,6.6025-6.303,3.4734-1.3475,9.8064-4.0424,9.8064-4.0424" style="fill: #020202"/>
      </g>
      <g style="clip-path: url(#l)">
        <path d="M300.0914,217.815s-13.175,3.0392-12.8157,10.45c.3294,7.4259-.3593,9.1177,2.77,10.48,3.1141,1.3474,5.1951,3.7129,8.6686,0,3.4584-3.728,6.4228-9.4621,3.9075-15.1813Z" style="fill: #020202"/>
      </g>
      <g style="clip-path: url(#l)">
        <path d="M309.7032,255.9328s-7.5157,11.4833,2.0212,15.87c4.3417-3.3687,2.2457-1.0331,4.1621-5.06a19.4387,19.4387,0,0,0,1.9014-8.429c0-1.0181-1.9014-2.3805-1.9014-2.3805Z" style="fill: #020202"/>
      </g>
      <g style="clip-path: url(#l)">
        <path d="M329.1513,257.9539s-8.5038,4.3718-6.6324,11.8276l1.8565,7.4259s5.03-2.0361,4.7759-5.4047,4.9556-7.77,4.9556-7.9349,3.1141-5.57,0-5.9139a19.3814,19.3814,0,0,0-4.9556,0" style="fill: #020202"/>
      </g>
      <g style="clip-path: url(#l)">
        <path d="M268.0226-.895c-.01.2409-.03.4862-.03.723,0,8.0847-1.1229,10.0909,2.8147,9.0878s11.7377-5.5395,13.31-9.0878a5.6449,5.6449,0,0,1,.3953-.723Z" style="fill: #020202"/>
      </g>
      <g style="clip-path: url(#l)">
        <path d="M232.6954-.895c-.1934.2308-.3853.4565-.59.723-4.6861,6.0785-8.8482,15.2262-8.8482,21.7987,0,6.5576-1.048,9.5819,2.0811,12.6211s5.1951,4.3418,7.8152,7.4559c2.605,3.174,2.0661,6.7372,5.1951,6.2282,3.1291-.524,11.8276-13.2648,11.3635-15.2561-.4342-1.9763.5988-10.3005,4.4915-14.238,3.9076-3.9226,6.6923-11.3934,7.366-14.253.4368-1.7562,1.006-2.8686,1.4968-5.08Z" style="fill: #020202"/>
      </g>
      <g style="clip-path: url(#l)">
        <path d="M215.9658,4.2s-10.9293,1.3176-14.5824,11.648c-3.6381,10.3154-6.2282,16.319-3.129,16.858,3.129.554,6.4228,1.9913,8.16,0,1.7217-1.9762,3.2937-11.064,3.2937-11.064s2.0811-8.1446,6.2582-8.1446c4.1621,0,4.1621-4.3118,4.1621-4.3118Z" style="fill: #020202"/>
      </g>
      <g style="clip-path: url(#l)">
        <path d="M182.4361-.895c.21,4.7958,1.4057,6.8919.2178,11.847-1.5421,6.6024-4.6711,10.6748-.2395,10.66,4.4016-.03,12.9055-1.4223,12.5612-5.7941A13.68,13.68,0,0,1,200.35,4.17c2.1752-1.6918,3.7849-2.9727,4.29-5.0648Z" style="fill: #020202"/>
      </g>
      <g style="clip-path: url(#l)">
        <path d="M135.4282-.895H112.2653a9.7047,9.7047,0,0,0,1.5341,3.7473c7.6355,11.1539,19.6727,21.9335,21.9933,31.3955,2.2907,9.4321,7.8452,7.6805,7.8452-1.572,0-9.2375-3.2039-24.0894-7.8452-32.8478C135.6669-.4094,135.5466-.6514,135.4282-.895Z" style="fill: #020202"/>
      </g>
      <g style="clip-path: url(#l)">
        <path d="M163.3854,2.8522,166.27-.895H154.4934c-1.2783,3.5455-2.4755,7.8466-1.7678,10.0653,1.3176,4.1771,3.4136,5.9587,3.4136,9.7765,0,3.8327-.9881,11.6778-3.6231,21.604-2.6351,9.8963-5.4048,11.7079-5.4048,11.7079s-4.8658-.7936-3.4884,14.8817c1.3924,15.7053,6.2432,20.3016,6.2432,24.0744,0,3.7579-3.4584,7.1415,0,3.7579,3.4884-3.3686,1.5271-14.4925,2.8446-22.0831,1.3175-7.6057,13.13-28.2066,16.9329-36.1266,3.8327-7.92,0-17.8312,0-17.8312l5.8988-3.1141s-3.4734-5.1952-5.8988-3.8477,5.8988-7.7853,5.8988-7.7853Z" style="fill: #020202"/>
      </g>
      <g style="clip-path: url(#l)">
        <path d="M175.5574,43.68c-.7037,1.3625-8.3242,2.7249-9.0279,9.4621-.6737,6.7522.7037,6.6474,0,18.1756-.6737,11.5281.2994,15.825-.1647,23.1311-.509,7.2912-4.4915,17.3073-.0749,20.062s4.4167,9.2974,9.2824.9732,4.3119-12.1271,4.5814-21.0352c.2844-8.9081-.2695-7.4409,0-17.9659.2844-10.5251,4.9556-22.8617,4.3417-26.4849-.6288-3.5931-8.938-6.318-8.938-6.318" style="fill: #020202"/>
      </g>
      <g style="clip-path: url(#l)">
        <path d="M159.4778,114.5107c-1.2726,4.0873-.3443,29.4792,4.7311,34.6743,5.1053,5.1952,1.6319,9.2974,5.45,15.66,3.8177,6.3928,9.5219,10.75,10.48,3.8477.9582-6.887-4.5813-13.4146-4.5813-25.362,0-11.9024-1.4822-16.2143-5.9438-16.7532-4.4465-.554,0-11.124,0-11.124l-5.39-5.6892Z" style="fill: #020202"/>
      </g>
      <g style="clip-path: url(#l)">
        <path d="M232.9287,58.0377s-10.8994-13.4-17.1276-5.779C209.543,59.8942,204.6922,66.347,208.51,72.89c3.8178,6.5725,3.8178,11.4683,0,12.0522-3.8177.6138-3.683,5.0005-3.683,5.0005H192.4753s-10.0759,3.0392-7.95,9.1027c2.1259,6.0785-5.5844,14.0135,0,15.4508,5.5994,1.4223,10.0909-1.9313,12.3516,5.4646,2.2607,7.411-2.3656,20.7507,3.4135,18.8044,5.7791-1.9313,12.7259-8.01,14.8069-8.3542,2.0661-.3443,7.6356-5.0454,7.98-10.45.3444-5.42-5.8988-27.7873,0-28.7455s8.2644-4.5214,9.8364-10.4951c1.602-5.9887,3.0093-19.553.015-22.6821" style="fill: #020202"/>
      </g>
      <g style="clip-path: url(#l)">
        <path d="M244.2173,132.7312l-9.5519-6.1384s-9.7016-1.9912-9.7915,6.1384c-.06,8.13.9732,16.8281,2.8746,19.8973,1.9313,3.0842,6.9169,6.1084,6.9169,6.1084s6.5276.2546,6.318-6.1084c-.21-6.3479-.5839-7.8152,1.3175-13.8637Z" style="fill: #020202"/>
      </g>
      <g style="clip-path: url(#l)">
        <path d="M317.7879,177.721s-1.7517,7.3361-6.0785,5.824a102.7932,102.7932,0,0,0-10.63-2.8147l-5.6892,7.1115s-8.9231,1.6169-6.7971,7.3511c2.111,5.7341,2.44,8.444,6.7971,6.4228s5.6294-7.4259,9.1477-9.4621c3.5333-2.0211,8.7584-2.0211,8.7584-2.0211s4.4765-.7636,4.4765-6.5875v-5.824Z" style="fill: #020202"/>
      </g>
      <g style="clip-path: url(#l)">
        <path d="M283.1735,192.1536s-4.9407-4.731-9.7915,3.0393c-4.8658,7.77,1.4373,6.9019-5.5245,10.36-6.9768,3.4883-5.5845,2.8146-6.2731,6.5126-.6887,3.713,4.9106,8.4441,6.2731,9.1178s7.6055,8.0846,7.6055,8.0846l-2.081-13.3247s9.0129-2.2907,11.7826-5.9438,3.4435-14.8069,3.4435-14.8069Z" style="fill: #020202"/>
      </g>
      <g style="clip-path: url(#l)">
        <path d="M261.5844,177.721l-.06,5.824h4.3867s.15,0,0,4.2968c-.18,4.2969-.8684,5.6593-4.3418,7.3511-3.4884,1.6918-2.44,3.713-7.4708-3.0542-5.0156-6.7223-1.2277-15.361,0-14.4327,1.2426.9582,7.4858.015,7.4858.015" style="fill: #020202"/>
      </g>
      <g style="clip-path: url(#l)">
        <path d="M244.2173,164.486s-8.2644-8.0547-9.6717.3444c-1.4073,8.429-1.1378,14.1332,2.2008,18.7a25.9394,25.9394,0,0,1,4.237,9.1776l8.7135-19.6728v-4.6561Z" style="fill: #020202"/>
      </g>
      <g style="clip-path: url(#l)">
        <path d="M224.8739,164.8454s-5.7191-5.7791-6.3479-.3444c-.6438,5.39.0748,13.1451,3.1739,19.0439,3.0992,5.9138,5.824,9.0728,8.2943,9.1776s-2.2308-15.0015-2.2308-15.0015Z" style="fill: #020202"/>
      </g>
      <g style="clip-path: url(#l)">
        <path d="M475.11,498.8925s-6.7522.509-8.3392,5.06c2.3506-.494,4.1771,5.5694,4.1771,5.5694h8.3392v-5.3149h-3.6381Z" style="fill: #020202"/>
      </g>
      <g style="clip-path: url(#l)">
        <polygon points="499.064 512.895 499.064 509.013 497.621 512.895 499.064 512.895" style="fill: #020202"/>
      </g>
      <g style="clip-path: url(#l)">
        <path d="M188.3731,217.815s5.09.6438,11.9174,5.7192c6.8421,5.0454,14.0883,0,17.2324,11.1389,3.129,11.1239,7.98,24.9726,10.2256,29.18,2.2607,4.222,9.0878-1.5271,6.7971,7.9349-2.2907,9.4471,2.2158,12.187,2.2158,12.187l-31.9495-1.7368-12.3366-52.4007" style="fill: #020202"/>
      </g>
      <g style="clip-path: url(#l)">
        <path d="M184.5254,130.4106s-8.01,10.1208-2.0661,16.6934c5.9138,6.5875,5.9138,5.3,5.9138,15.0615,0,9.7465-.15,18.8193,4.1022,21.3645a38.842,38.842,0,0,1,7.8152,6.5875s13.5793-12.9206,12.2767-17.0827c-1.2875-4.1621-.5988-12.2767-4.0722-17.3371-3.4585-5.06-16.02-13.16-16.02-13.16Z" style="fill: #020202"/>
      </g>
      <g style="clip-path: url(#l)">
        <path d="M212.6571,202.2744s-6.2731,2.2907-4.0723,7.71c2.1859,5.45,6.842,10.0011,8.9381,13.04,2.081,3.0392,3.3087,5.5545,5.5694,9.6267,2.2458,4.0274,4.4915,12.7409,4.6712,14.9717.15,2.2158-3.2938,5.779-4.6712,8.3092-1.4073,2.53-.2994,13.22,4.6712,11.5581,4.9556-1.6469,11.9324,1.9463,16.4538,4.2969,4.5364,2.3805,14.9866,4.4016,17.3072,5.4047,2.2907,1.0031,3.5782,2.9344,6.318,6.7822,2.7548,3.8477,12.3067,10.1208,12.2169,7.5008-.1048-2.65.2545-10.2107-6.6923-14.268-6.9319-4.0424-12.1271-4.207-16.8281-5.4047-4.6862-1.1678-12.9954-5.5545-12.9954-7.92s7.74-9.4172,8.0248-12.9805c.2845-3.5482-2.0062-5.06-7.366-12.666-5.36-7.5906-15.5855-17.2623-16.4539-22.2927-.8683-5.06-4.5064-12.6361-7.6355-13.6542-3.1142-1.0179-7.4559-.0149-7.4559-.0149" style="fill: #020202"/>
      </g>
      <g style="clip-path: url(#l)">
        <path d="M290.8988,257.8192l-10.8394-1.8864s5.09-6.0336,7.1864-5.0455c2.111,1.0032.6737-1.7666-2.7847-3.9225s-16.7683-3.698-16.6335,5.42c.1647,9.1027,1.033,11.5132,5.5395,15.0914,4.5214,3.6381,7.7853,7.5457,11.094,4.3268s3.5483-5.5545,4.4765-7.9349c.9132-2.38,1.9612-6.0486,1.9612-6.0486" style="fill: #020202"/>
      </g>
      <g style="clip-path: url(#l)">
        <path d="M267.8575,229.2683S258.111,220.24,254.2034,210c-3.8926-10.2556-10.8694-10.7646-9.9861-7.7254.8983,3.0543,5.9438,8.968,5.48,9.7915-.4192.8384,1.8715,5.7641,1.8715,5.7641s-8.998-4.1621-10.585-7.83c-1.6019-3.6681-1.1228-9.7615-4.222-4.4316-3.0991,5.3149-2.111,3.4884,0,12.2618,2.0811,8.7584,4.6862,13.8038,9.3723,16.8581A48.75,48.75,0,0,0,263.905,241.71c7.74,1.572,11.4533,3.5332,11.1539,0-.2995-3.4885-7.2014-12.4415-7.2014-12.4415" style="fill: #020202"/>
      </g>
      <g style="clip-path: url(#l)">
        <path d="M383.0642,155.7276s-26.4249-2.0361-23.64,78.9455c12.142-16.1993,11.094-16.1993,17.3521-11.1389,6.2432,5.06,8.3392-12.142,16.6485-9.1177l-4.1622-9.0878s9.3723-9.1028,15.63,2.0211c-14.5823-22.2628-21.7538-23.2808-21.8137-33.4017-.0748-10.1357-.0149-18.2205-.0149-18.2205" style="fill: #020202"/>
      </g>
      <g style="clip-path: url(#l)">
        <path d="M26.29,297.8833s-32.2489,7.6206-42.9237,19.7476C2.1859,305.8183,2.1709,304.4558,26.29,297.8833" style="fill: #d95f27"/>
      </g>
    </g>
    <g>
      <g style="clip-path: url(#dr)">
        <path d="M265.7914,104.24c-.3593-27.428-8.2194-38.0579,46.2025-37.07,54.4219,1.003,55.44,14.9865,57.5061,40.9623-.2845,32.1891-41.3218,43.5375-68.2407,30.9464-26.1705-12.2019-26.23-18.984-35.4679-34.839M322.2345,67.62c-17.5917,0-31.86,13.0852-31.86,29.2246,0,16.1544,14.268,29.24,31.86,29.24,17.5766,0,31.8446-13.0852,31.8446-29.24.015-16.1244-14.253-29.2246-31.8446-29.2246" style="fill: #020202"/>
      </g>
      <g style="clip-path: url(#dr)">
        <path d="M342.1018,97.2335a18.7144,18.7144,0,1,1-18.6995-18.1906,18.4419,18.4419,0,0,1,18.7,18.1906m-9.3572-18.1906a9.099,9.099,0,1,0,9.3572,9.1028,9.2192,9.2192,0,0,0-9.3572-9.1028" style="fill: #020202"/>
      </g>
      <g style="clip-path: url(#dr)">
        <path d="M370.9522,99.1648s-62.836-22.0382-94.486-9.8813c22.5323-22.667,58.3594-41.0372,94.486,9.8813" style="fill: #020202"/>
      </g>
    </g>
    <g style="clip-path: url(#l)">
      <path d="M381.1478,118.6579s6.0935,29.06,1.9014,41.6061c-4.1771,12.5762-9.6567-14.0584-9.6567-14.0584Z" style="fill: #020202"/>
    </g>
    <g style="clip-path: url(#l)">
      <path d="M315.8865,333.381l-3.5483,28.85,5.33,9.2524s-3.5333,11.9474,4.5813,40.0941c3.3237,4.0573,5.0605,5.9437,15.5855,15.4357,10.5251,9.507,14.6872,18.7744,15.5106,25.0176.8384,6.1833-35.6774,31.7848-35.6774,31.7848l-73.4508,12.142L143.3684,336.0011l26.2153-38.1028,67.1777,2.77,42.6093,13.8638Z" style="fill: #f6f9fa"/>
    </g>
    <g style="clip-path: url(#l)">
      <path d="M428.3107,512.895l.3421-1.7258s-3.084.95-6.3459,1.7258Z" style="fill: #231f20"/>
      <path d="M414.7115,512.895c.2207-2.0939,5.2578-7.0407,5.2578-7.0407s-10.9742,1.7816-11.0641,0c-.0748-1.7667,8.5788-13.2649,8.5788-13.2649l-66.01-43.6722v-2.86s-30.9314,10.0759-38.2975,17.8611c6.1234-9.4321,25.0176-21.08,31.71-21.5741,6.6924-.509,4.3269-4.1771,4.3269-4.1771s-3.9825-1.6169-6.5277,0c-2.5451,1.6469,2.2009-7.1864,2.2009-7.1864s-4.5364,1.2277-6.2133,4.252c-1.6618,3.0542,0-6.5726,0-6.5726l-5.9586-3.0392s-39.4952,8.1-49.8706,19.7475A204.7552,204.7552,0,0,0,260.9428,475.98c3.7629-9.0677,14.4129-33.2792,29.7315-40.7469A153.9493,153.9493,0,0,1,329.69,422.6569s.15-6.6474-3.2938-5.3749c-3.4584,1.2577,3.4435-1.2725,3.4435-1.2725s-6.2133-10.1658-11.2288-9.3723c-5.03.7785-37.2943-.6887-53.9577,24.3439-4.1621,7.3061-7.8152,14.4027-7.8152,14.4027s6.2431-19.6129,8.8482-22.712c2.59-3.1141,17.6965-21.7987,45.5437-21.32l7.5307,1.0031-2.081-6.2731,1.9164-2.83s-15.4358-2.53-18.0409-2.53,10.6748-3.1291,10.6748-3.1291V381.44s-62.1622-4.2968-82.4787-.5239c17.8462-3.8478,68.1359-4.1921,72.8071-3.5932,4.6711.5839,20.0321-1.5271,20.0321-1.5271l-8.459-7.1715s-84.9341-44.0165-142.1707-30.9463L153.19,339.2947c9.4134-2.7388,16.31-4.7425,21.27-6.1811-.306.0791-.3049.0668.1391-.077a8.536,8.536,0,0,1,.8667-.2147c20.1561-5.8444,5.2-1.4477.23-.0483,6.6084-1.2374,28.8528-1.1463,33.2485-.95,4.6861.1947,44.7652,8.07,48.4033,9.1926s55.7843,22.8767,55.7843,22.8767v-9.8364l3.5333-3.9076v-9.1327s-47.8793-21.9933-78.5711-20.3015c-30.7069,1.7068-48.3883,8.2643-48.3883,8.2643L178.2524,331.06s27.5927-13.8038,40.5881-15.0315c13.0253-1.2127,59.8416,4.3268,67.6568,7.8751,7.8,3.5483,30.1678,11.1539,30.1678,11.1539s-21.14-19.2386-35.8271-25.8261c-14.6423-6.5875-18.46-9.4172-30.3475-16.0945-11.9025-6.6924-31.156-17.966-36.3512-23.97C208.9293,263.1641-.03,236.35-.03,236.35V512.895Z" style="fill: #231f20"/>
    </g>
    <g style="clip-path: url(#l)">
      <path d="M123.5265,141.6642c4.3918,5.7486,9.0016,11.954,13.8981,18.66A60.3655,60.3655,0,0,0,123.5265,141.6642Z" style="fill: #0f572c"/>
      <path d="M-.895,90.9329V134.35c33.4021-10.0213,92.2748-21.6972,124.4215,7.3145C78.9516,83.3184,57.41,73.2568-.895,90.9329Z" style="fill: #0f572c"/>
      <path d="M-.895,23.7192V69.181c37.4-12.564,84.9608-19.2271,117.1048,9.9068C85.196,50.994,69.3035,7.7637-.895,23.7192Z" style="fill: #0f572c"/>
      <path d="M135.8526,332.4229C146.0183,355,150.5547,373.4751,153.2347,381.44c-15.0016-69.3336-6.2133-127.7829-151.4831-173.641l.7786-8.9381s91.7012-12.4863,146.8118,84.32C120.0839,217.3289,136.921,165.9971-.895,150.8V359.3885c6.6986-16.8418,14.9259-30.8464,24.1908-32.9543,2.8131-.6356-16.5049,38.3748-24.1908,59.0176v29.4667c.07-.0373.1337-.0654.2063-.1068,2.3413-1.3409,6.0487-5.2988,9.8547-9.84-3.8652,6.5107-6.5355,13.4532-4.6446,18.4636,4.6562,12.4115.8684,11.6031,13.0852,25.4518,12.1869,13.8337,29.0749,26.7244,37.1746,51.3527,8.1,24.6582,26.32-62.0275,32.1291-76.8943,5.7641-14.8968,14.5075-13.5194,3.7279-26.1854-10.7945-12.681,6.9918-8.2194,6.2133-12.5013-.7786-4.2968-19.1337-47.505-67.1478-77.1787,0,0,54.4967,20.8255,76.8794,50.7388,22.4125,29.9133,27.952,40.5132,27.952,40.5132C118.0064,347.619,129.834,326,16.3191,261.3824,27.5778,256.6215,125.7018,309.8306,135.8526,332.4229Z" style="fill: #0f572c"/>
    </g>
  </g>
</svg>
